<svg id="MainLogo" xmlns="http://www.w3.org/2000/svg" xmlns:xlink="http://www.w3.org/1999/xlink" width="857.884" height="780.049" viewBox="0 0 857.884 780.049">
  <defs>
    <linearGradient id="linear-gradient" x1="0.66" y1="0.501" x2="-0.066" y2="0.817" gradientUnits="objectBoundingBox">
      <stop offset="0" stop-color="#3f99ab"/>
      <stop offset="0.102" stop-color="#378098"/>
      <stop offset="0.293" stop-color="#2a5979"/>
      <stop offset="0.482" stop-color="#203a61"/>
      <stop offset="0.665" stop-color="#19244f"/>
      <stop offset="0.841" stop-color="#151745"/>
      <stop offset="1" stop-color="#141342"/>
    </linearGradient>
    <linearGradient id="linear-gradient-2" x1="0.03" y1="0.282" x2="0.724" y2="0.527" gradientUnits="objectBoundingBox">
      <stop offset="0" stop-color="#c2f7ff"/>
      <stop offset="1" stop-color="#6a83ad"/>
    </linearGradient>
    <linearGradient id="linear-gradient-3" x1="0.496" y1="0.282" x2="0.416" y2="1.04" xlink:href="#linear-gradient"/>
    <linearGradient id="linear-gradient-4" x1="0.514" y1="0.798" x2="0.443" y2="0.044" xlink:href="#linear-gradient"/>
    <linearGradient id="linear-gradient-5" x1="0.1" y1="0.312" x2="0.831" y2="0.648" xlink:href="#linear-gradient"/>
    <linearGradient id="linear-gradient-6" x1="0.08" y1="0.243" x2="0.602" y2="0.516" xlink:href="#linear-gradient-2"/>
    <linearGradient id="linear-gradient-7" x1="0.31" y1="0.212" x2="0.589" y2="0.685" xlink:href="#linear-gradient"/>
    <linearGradient id="linear-gradient-8" x1="0.481" y1="0.086" x2="0.578" y2="0.996" xlink:href="#linear-gradient"/>
    <linearGradient id="linear-gradient-9" x1="0.214" y1="0.079" x2="0.733" y2="0.843" xlink:href="#linear-gradient"/>
  </defs>
  <g id="Artwork_67" data-name="Artwork 67" transform="translate(400.563 390.025) rotate(51)">
    <g id="Group_192644" data-name="Group 192644" transform="translate(-245.409 -316.701)">
      <path id="Path_308713" data-name="Path 308713" d="M214.747,440.4c-22.268-111.382-44.853-113.284-44.906-113.25-15.526,5.76-30.493,6.528-44.185,3.431-22.582-5.092-41.712-20.664-54.241-41.6-.02-.033-.03-.064-.053-.1a.94.94,0,0,1-.073-.117,112.606,112.606,0,0,1-13.822-76.9c0-.023.01-.043.01-.067l.01-.04c.334-1.934.735-3.852,1.186-5.783-2.058,13.107.043,30.567,5.71,47.442l.01.03c7.758,23.123,22.184,45.147,41.649,53.326,12.084,5.1,26.11,4.855,41.692-3.755,17.544-8.924,39.1-29.588,67.739-71.387C280.06,137.344,359.149,83.287,360.388,82.445,189.091,269.528,211.964,424.978,214.747,440.4Z" transform="translate(130.429 193.004)" fill="url(#linear-gradient)"/>
      <path id="Path_308714" data-name="Path 308714" d="M254.853,91.118c.087-.11.16-.207.247-.3q-2.7,2.932-5.566,6.01-2.816,3-5.763,6.117c-.982,1.016-1.954,2.051-2.933,3.077-15.2,15.88-31.907,32.421-48.09,46.968-1.059.949-2.115,1.888-3.174,2.826a393.626,393.626,0,0,1-32.508,26.046c-.628.441-1.253.885-1.868,1.336q-1.844,1.343-3.635,2.72c-1.2.919-2.375,1.844-3.541,2.8s-2.3,1.888-3.418,2.857c-1.64,1.4-3.237,2.83-4.8,4.3-.408.378-.819.765-1.23,1.153-1.239,1.176-2.459,2.365-3.658,3.585-1.036,1.046-2.048,2.1-3.054,3.181q-.757.792-1.5,1.62c-21.927,23.434-33.7,50.884-37.205,77.752l-.01.04c0,.023-.01.043-.01.067a112.606,112.606,0,0,0,13.822,76.9.943.943,0,0,0,.074.117c.023.033.033.063.053.1,12.074,21.309,30.861,36.881,54.241,41.6,13.691,3.1,28.659,2.329,44.185-3.431-1.123.852-57.856,42.327-120.123-3.939-.12-.087-.247-.174-.368-.257a98.7,98.7,0,0,1-14.761-12.95c-.13-.13-.247-.257-.368-.4-.354-.378-.7-.755-1.046-1.146-.8-.9-1.574-1.8-2.342-2.716-.668-.8-1.316-1.6-1.941-2.419-1.016-1.293-1.975-2.609-2.9-3.949-.281-.388-.548-.789-.819-1.176q-.827-1.228-1.62-2.469c-.311-.5-.625-1-.925-1.49-.585-.939-1.156-1.9-1.694-2.86-.057-.087-.11-.184-.164-.281-.722-1.283-1.423-2.579-2.091-3.882-.314-.618-.628-1.233-.929-1.848-.595-1.229-1.176-2.459-1.717-3.712l-.02-.03c-.247-.575-.5-1.146-.745-1.717s-.464-1.113-.692-1.671c-7.2-17.968-9.98-37.971-9.752-58.2,0-.378.01-.768.02-1.146.013-.745.033-1.487.057-2.232a254.721,254.721,0,0,1,5.125-42.534c.214-1.1.441-2.2.678-3.3,1.587-7.317,3.441-14.45,5.493-21.312A323.319,323.319,0,0,1,71,171.576c.033-.063.063-.117.087-.174a311.4,311.4,0,0,1,26.067-42.878c44.055-56.3,162.032-91.744,186.772-70.2C276.4,67.27,266.333,78.686,254.853,91.118Z" transform="translate(94.76 121.61)" fill="url(#linear-gradient-2)"/>
      <path id="Path_308715" data-name="Path 308715" d="M192.121,63.581c-.087.1-.16.194-.247.3l-.023.02c-44.713,53.7-101.984,156.971-48.371,234.669-53.279-33.848-69.313-74.428-76.1-120.4q.742-.827,1.5-1.62c1.006-1.079,2.031-2.135,3.054-3.181,1.2-1.219,2.419-2.409,3.658-3.585.411-.388.809-.775,1.23-1.153,1.567-1.467,3.164-2.893,4.8-4.3,1.119-.959,2.265-1.918,3.418-2.857s2.342-1.878,3.541-2.8,2.406-1.824,3.635-2.72c.615-.451,1.24-.9,1.868-1.336a393.621,393.621,0,0,0,32.508-26.046c1.059-.939,2.115-1.878,3.174-2.826,17-15.2,33.717-31.9,48.09-46.968.992-1.036,1.975-2.061,2.933-3.077q2.947-3.122,5.763-6.117Q189.416,66.514,192.121,63.581Z" transform="translate(157.74 148.843)" fill="url(#linear-gradient-3)"/>
      <path id="Path_308716" data-name="Path 308716" d="M127.331,273.3c-51.4,6.9-75.109-68.1-70.3-103.454,0,0,4.086-36.758,36.016-71.965a173.091,173.091,0,0,0,6.1,29.972c-55.167,53.71-9.966,180.772,41.746,107.8C140.892,235.652,145.416,258.992,127.331,273.3Z" transform="translate(132.078 229.135)" fill="url(#linear-gradient-4)"/>
      <path id="Path_308717" data-name="Path 308717" d="M226.974,31.683c-36.21,32.739-70.469,70.565-93.6,112.432-46.57,66.3-54.164,230.556-3.194,279.682C117.65,412.2,88.55,379.582,76.412,318.154c0,0-50.366,47.355-61.3,110.627C4.186,343.79,14.857,258.434,63.529,180.725q8.369-13.371,18.279-26.437c.033-.043.063-.073.087-.107,30.62-40.269,72.486-78.106,128.054-112.331C220.155,35.365,226.38,32,226.974,31.683Z" transform="translate(26.221 74.17)" fill="url(#linear-gradient-5)"/>
      <path id="Path_308718" data-name="Path 308718" d="M334.552,112.944c-55.738-5.232-161.912,41.983-227.633,132.919a311.4,311.4,0,0,0-26.067,42.879c-.023.057-.053.11-.087.174a323.319,323.319,0,0,0-19.141,49.33c-2.051,6.862-3.906,14-5.493,21.312a248.715,248.715,0,0,0-5.8,45.835c-.023.745-.043,1.487-.057,2.232-.01.378-.02.768-.02,1.146-.271,20.036,2.4,40.029,9.752,58.2.227.558.454,1.109.692,1.671s.5,1.143.745,1.717l.02.03c.541,1.253,1.123,2.482,1.717,3.712.3.615.615,1.23.929,1.848.668,1.3,1.37,2.6,2.091,3.882.053.1.107.194.164.281.538.962,1.109,1.921,1.694,2.86.3.494.6.992.925,1.49q.8,1.243,1.62,2.469c.271.388.538.788.819,1.176.929,1.34,1.888,2.656,2.9,3.949.625.822,1.273,1.62,1.941,2.419.194.257.411.518.628.775q.822.987,1.714,1.941c.334.391.682.768,1.046,1.146.12.14.237.267.368.4a98.7,98.7,0,0,0,14.761,12.95c.107.083.227.16.334.247-.635-.291-8.222-3.872-17.814-13.25v-.01h-.01a.652.652,0,0,0-.1-.077c-.217-.16-.431-.334-.658-.494-.247-.184-.484-.368-.722-.561-.952-.778-2.342-1.944-4.069-3.528-.117-.087-.227-.207-.344-.314-50.97-49.126-43.376-213.38,3.194-279.682,23.133-41.866,57.392-79.693,93.6-112.432l.02-.01c13.4-12.118,28.529-25.108,43.086-36.427.063-.053.14-.107.2-.16,25.679-19.348,56.226-39.06,83.7-51.208a3.5,3.5,0,0,1,.378-.164c19.929-8.436,35.909-11.964,46.894-11.78a34.667,34.667,0,0,1,11.921,2.492C371.453,21.587,353.716,78.5,334.552,112.944Z" transform="translate(84.999 4.272)" fill="url(#linear-gradient-6)"/>
      <path id="Path_308719" data-name="Path 308719" d="M329.836,8.6C327,7.039,323,6.177,317.915,6.1c-10.985-.184-26.965,3.344-46.894,11.78a3.491,3.491,0,0,0-.378.164,294.145,294.145,0,0,0-31.86,16.044A525.226,525.226,0,0,0,107.134,91.924a476.723,476.723,0,0,0-46.256,32.511l-.02.02-.01.02q-6.8,1.363-14.049,3.054C90.573,67.324,279.223-29.4,329.836,8.6Z" transform="translate(109.557 0)" fill="url(#linear-gradient-7)"/>
      <path id="Path_308720" data-name="Path 308720" d="M236.169,34.726C180.6,68.951,138.735,106.788,108.115,147.057c-.023.033-.053.063-.087.107Q98.105,160.229,89.749,173.6C89.4,126.072.939,107.1,0,108.064,69.206,71.841,118.332,55.31,170.4,43.636A401.71,401.71,0,0,1,236.169,34.726Z" transform="translate(0 81.293)" fill="url(#linear-gradient-8)"/>
      <path id="Path_308721" data-name="Path 308721" d="M184.6,19.02q-3.7,2.771-7.5,5.71c-.063.053-.14.107-.2.16C162.343,36.209,147.215,49.2,133.814,61.317l-.02.01c-.595.314-6.819,3.682-17.026,10.167A422.474,422.474,0,0,0,51,79.95l.01-.02.02-.02A316.34,316.34,0,0,1,97.29,47.4C124.362,31.863,154.8,20.263,184.6,19.02Z" transform="translate(119.401 44.526)" fill="url(#linear-gradient-9)"/>
    </g>
  </g>
  </svg>
