<svg width="484" height="324" viewBox="0 0 484 324" fill="none" xmlns="http://www.w3.org/2000/svg">
<path d="M31.3572 16.0242C29.1343 13.1746 27.0789 10.6012 25.2568 8.35585C29.6471 10.762 35.1348 13.813 41.4177 17.3962C57.9798 26.8419 80.05 39.9763 102.109 54.7435C124.186 69.5225 146.169 85.8825 162.606 101.773C170.825 109.72 177.592 117.487 182.289 124.821C187.004 132.183 189.5 138.903 189.5 144.806C189.5 156.418 181.414 164.13 168.379 168.673C155.347 173.215 138.062 174.265 121.518 172.781C104.955 171.295 89.5449 167.307 80.2334 162.095C75.5154 159.454 72.8195 156.752 71.9329 154.322C71.5166 153.181 71.4776 152.052 71.8594 150.863C72.2542 149.634 73.1454 148.205 74.8124 146.615C85.224 136.686 86.1226 121.98 82.3714 106.403C78.6058 90.7656 70.009 73.53 60.3406 57.6016C50.6516 41.6394 39.7877 26.831 31.3572 16.0242Z" fill="white" stroke="black" stroke-width="5"/>
<path d="M481.5 189.5C481.5 225.322 455.346 258.277 411.905 282.421C368.549 306.518 308.483 321.5 242 321.5C175.517 321.5 115.451 306.518 72.0947 282.421C28.6537 258.277 2.5 225.322 2.5 189.5C2.5 153.679 28.6537 120.723 72.0947 96.5793C115.451 72.4825 175.517 57.5 242 57.5C308.483 57.5 368.549 72.4825 411.905 96.5793C455.346 120.723 481.5 153.679 481.5 189.5Z" fill="white" stroke="black" stroke-width="5"/>
<path d="M32 15C32 15 171 87.3096 171 128.599C171 169.888 54.0598 151.041 77.6164 128.599C107.27 100.348 32 15 32 15Z" fill="white"/>
</svg>
